<svg xmlns="http://www.w3.org/2000/svg" width="69" height="80" viewBox="0 0 69 80">
  <g id="Group_5108" data-name="Group 5108" transform="translate(-328.5 -3000.958)">
    <path id="PDF" d="M63.26,74.3V28.584h-18.7a4.739,4.739,0,0,1-3.051-1.25A4.693,4.693,0,0,1,40.255,24.3V5.72H5.755V74.311H63.26ZM46.01,6.079V22.864H62.9a5.117,5.117,0,0,0-.991-1.828L47.85,7.064A5.926,5.926,0,0,0,46.01,6.079ZM65.949,16.972A12.4,12.4,0,0,1,68.1,20.363a11.235,11.235,0,0,1,.9,3.923V75.718a4.685,4.685,0,0,1-1.258,3.032A4.757,4.757,0,0,1,64.691,80H4.309a4.677,4.677,0,0,1-3.051-1.235A4.693,4.693,0,0,1,0,75.733V4.282A4.685,4.685,0,0,1,1.258,1.25,4.757,4.757,0,0,1,4.309,0H44.564a12.466,12.466,0,0,1,3.947.891,11.424,11.424,0,0,1,3.412,2.141Z" transform="translate(328.5 3000.958)" fill="#0c407c"/>
    <path id="Path_24757" data-name="Path 24757" d="M175.384,223.784H178.4l-4.193,6.472c-.163.285-.407.672-.407.672-.244.387-.366.549-.366.549l-.082.122h-.081a1.77,1.77,0,0,0-.2-.407,5.8,5.8,0,0,0-.692-.936l-4.315-6.472h3.094v-4.355h-11.8v4.355h2.768l7.693,11.072-7.9,11.519h-2.768v4.315h11.438v-4.315h-3.053l4.193-6.553a6.944,6.944,0,0,0,.407-.672c.2-.387.305-.549.305-.549.1-.163.142-.163.142-.163h.081a1.766,1.766,0,0,0,.2.407,2.582,2.582,0,0,0,.183.305c.1.143.244.326.244.326.143.183.265.346.265.346l4.355,6.553h-3.093v4.315h11.845v-4.315h-2.768l-7.815-11.112,7.937-11.479h2.727v-4.355H175.384Z" transform="translate(190.805 2816.33)" fill="#0c407c"/>
  </g>
</svg>
