<svg xmlns="http://www.w3.org/2000/svg" width="69" height="80" viewBox="0 0 69 80">
  <path id="Link" d="M100.844,34.622V34.45a2.272,2.272,0,0,0-.6-1.479c-.05-.056-.081-.116-.126-.172a2.3,2.3,0,0,0-.2-.137,2.256,2.256,0,0,0-1.466-.572H98.32a.052.052,0,0,0-.02-.005l-.01.005-18.727.233a2.534,2.534,0,0,0,.015,5.059l12.7-.187L57.91,78.585A2.473,2.473,0,0,0,61.42,82.07l34.4-41.421L95.933,53.9a2.538,2.538,0,0,0,5.067-.02Zm-8.568,69.866a2.529,2.529,0,0,1-2.518,2.532l-50.2-.044a2.526,2.526,0,0,1-2.518-2.532V44.792a2.526,2.526,0,0,1,2.518-2.532h32.74V37.2H37.037A5.049,5.049,0,0,0,32,42.259v64.718a5.052,5.052,0,0,0,5.037,5.064l55.239.044a5.049,5.049,0,0,0,5.037-5.064v-45.4H92.276Z" transform="translate(-32 -32.085)" fill="#0c407c"/>
</svg>
