<svg xmlns="http://www.w3.org/2000/svg" width="69" height="80" viewBox="0 0 69 80">
  <path id="PDF" d="M55.618,53.9c-1.085-1.078-6.29-1.078-6.29-1.078a17.965,17.965,0,0,0,5.567,1.25,3.86,3.86,0,0,0,.8-.047C55.713,53.979,55.618,53.9,55.618,53.9Zm-29.028.7a76.612,76.612,0,0,1,12.753-3.61c-.094-.047-.582-.422-.582-.422a8.345,8.345,0,0,1-.723-.609A27.833,27.833,0,0,1,32.33,42.1a69.787,69.787,0,0,1-3.711,8.8C27.267,53.4,26.59,54.6,26.59,54.6ZM32.173,25.1c-.676,1.875-.094,5.892-.094,5.892.047-.313.314-1.969.314-1.969,0-.141.314-1.922.314-1.922a1.483,1.483,0,0,1,.173-.359.145.145,0,0,1-.047-.094.091.091,0,0,0-.016-.063c-.016-.016-.016-.063-.016-.063a2.867,2.867,0,0,0-.582-1.61.163.163,0,0,1-.047.094V25.1ZM14.294,66.169c2.343-1.078,6.148-7.048,6.148-7.048a28.047,28.047,0,0,0-3.931,3.751A15.741,15.741,0,0,0,14.294,66.169ZM40.161,47.822a41.858,41.858,0,0,0,3.774,2.5,51.222,51.222,0,0,1,5.252-.313c6.6,0,7.957,2.188,7.957,2.188a2.526,2.526,0,0,1,.094,2.329.163.163,0,0,1-.047.094l-.094.094v.047c-.267,1.7-3.192,1.7-3.192,1.7a22.9,22.9,0,0,1-5.173-.891,37.943,37.943,0,0,1-5.834-2.36,90.926,90.926,0,0,0-17.612,3.7C18.414,68.623,14.42,68.623,14.42,68.623a2.981,2.981,0,0,1-1.258-.313l-1.085-.531c-.047-.047-.267-.219-.267-.219-.456-.453-.267-1.61-.267-1.61.409-1.782,2.516-4.079,2.516-4.079a26.3,26.3,0,0,1,5.928-4.313.736.736,0,0,1,1.038.266.271.271,0,0,1,.094.172c2.343-3.8,4.812-8.8,4.812-8.8A76.51,76.51,0,0,0,30.6,37.492a39.581,39.581,0,0,1-1.368-7.126,18.084,18.084,0,0,1,.3-5.689A2.115,2.115,0,0,1,31.418,22.9h.991a2.079,2.079,0,0,1,1.572.672c.8.938.409,3.032.409,3.032a1.279,1.279,0,0,1-.173.359,1.406,1.406,0,0,1,.047.359v1.344a62.13,62.13,0,0,1-.629,8.58C36.072,44.524,40.161,47.822,40.161,47.822ZM63.26,74.3V28.584h-18.7a4.739,4.739,0,0,1-3.051-1.25A4.693,4.693,0,0,1,40.255,24.3V5.72H5.755V74.311H63.26ZM46.01,6.079V22.864H62.9a5.117,5.117,0,0,0-.991-1.828L47.85,7.064A5.926,5.926,0,0,0,46.01,6.079ZM65.949,16.972A12.4,12.4,0,0,1,68.1,20.363a11.235,11.235,0,0,1,.9,3.923V75.718a4.685,4.685,0,0,1-1.258,3.032A4.757,4.757,0,0,1,64.691,80H4.309a4.677,4.677,0,0,1-3.051-1.235A4.693,4.693,0,0,1,0,75.733V4.282A4.685,4.685,0,0,1,1.258,1.25,4.757,4.757,0,0,1,4.309,0H44.564a12.466,12.466,0,0,1,3.947.891,11.424,11.424,0,0,1,3.412,2.141Z" fill="#0c407c"/>
</svg>
